<svg width="546" height="291" viewBox="0 0 546 291" fill="none" xmlns="http://www.w3.org/2000/svg">
<g clip-path="url(#clip0_171_2)">
<path d="M348.745 223.771H373.542V107.703H348.745V223.771Z" fill="#3C3835"/>
<path d="M16.6094 207.104H239.839V192.912H16.6094V207.104Z" fill="#2A2724"/>
<path d="M16.6094 244.161H373.542V205.938H16.6094V244.161Z" fill="#3C3835"/>
<path d="M502.302 65.3853L537.948 146.052V255.292H370.781L374.333 65.3853H502.302Z" fill="#FBC317"/>
<path d="M498.099 70.7603L531.641 145.823L525.859 238.088H487.427L480.115 194.271L426 166.109V70.7603H498.099Z" fill="#F8A118"/>
<path d="M372.198 179.463L442.208 182L476.807 208.87L481.286 255.557L370.781 255.286L372.198 179.463Z" fill="#B57F1C"/>
<mask id="mask0_171_2" style="mask-type:luminance" maskUnits="userSpaceOnUse" x="374" y="196" width="96" height="96">
<path d="M374 196.333H470V291.057H374V196.333Z" fill="white"/>
</mask>
<g mask="url(#mask0_171_2)">
<path d="M441.51 291.068L469.026 263.458V224.412L441.51 196.802H402.599L375.088 224.412V263.458L402.599 291.068H441.51Z" fill="#272626"/>
</g>
<path d="M419.739 269.818L439.156 264.125L448.156 246.61L441.469 227.526L423.005 218.052L403.588 223.74L394.588 241.261L401.276 260.344L419.739 269.818Z" fill="#A2A2A1"/>
<path d="M407.198 255.328L419.198 261.49L432.042 257.37L438.213 245.38L434.088 232.542L422.088 226.375L409.239 230.495L403.073 242.49L407.198 255.328Z" fill="#EBEBEA"/>
<path d="M457.13 217.255L439.786 200.703L403.073 199.338L377.229 224.265V260.484L401.396 286.969H427.505L419.521 275.094C419.521 275.094 396.521 259.318 395.937 258.927C395.354 258.542 390.771 239.943 390.771 239.943L400.906 219.396L425.463 213.453L448.156 223.875L457.13 217.255Z" fill="#313030"/>
<path d="M439.177 237.922L440.828 238.688L442.537 238.068L443.307 236.417L442.682 234.708L441.031 233.938L439.323 234.563L438.552 236.214L439.177 237.922Z" fill="#EBEBEA"/>
<path d="M438.078 255.156L439.729 255.927L441.443 255.302L442.208 253.651L441.589 251.943L439.938 251.177L438.224 251.797L437.458 253.448L438.078 255.156Z" fill="#EBEBEA"/>
<path d="M423.828 266.037L425.479 266.802L427.193 266.182L427.958 264.531L427.339 262.823L425.688 262.052L423.974 262.677L423.208 264.328L423.828 266.037Z" fill="#EBEBEA"/>
<path d="M425.875 225.609L427.526 226.375L429.24 225.755L430.005 224.104L429.386 222.396L427.735 221.625L426.021 222.25L425.255 223.896L425.875 225.609Z" fill="#EBEBEA"/>
<path d="M407.823 227.406L409.474 228.172L411.188 227.552L411.953 225.901L411.333 224.193L409.682 223.422L407.969 224.047L407.203 225.698L407.823 227.406Z" fill="#EBEBEA"/>
<path d="M397.375 244.896L399.026 245.662L400.734 245.042L401.505 243.391L400.885 241.682L399.234 240.912L397.521 241.537L396.75 243.182L397.375 244.896Z" fill="#EBEBEA"/>
<path d="M407.823 261.802L409.474 262.568L411.188 261.948L411.953 260.297L411.333 258.589L409.682 257.818L407.969 258.443L407.203 260.094L407.823 261.802Z" fill="#EBEBEA"/>
<path d="M495.026 80.3438L517.537 139.641H436.083V80.3438H495.026Z" fill="#67BFDF"/>
<path d="M461.703 80.3438L494.052 104.495L478.818 107.802L512.761 139.641H459.948L441.245 109.99L453.521 102.542L436.083 80.3438H461.703Z" fill="white"/>
<mask id="mask1_171_2" style="mask-type:luminance" maskUnits="userSpaceOnUse" x="527" y="228" width="19" height="38">
<path d="M527.333 228.333H545.235V265.667H527.333V228.333Z" fill="white"/>
</mask>
<g mask="url(#mask1_171_2)">
<path d="M528.547 264.375H545.5V229.308H528.547V264.375Z" fill="#56534E"/>
</g>
<path d="M537.021 223.771H541.505V175.573H537.021V223.771Z" fill="#F8A118"/>
<path d="M505.448 72.5H503.068L531.641 139.641H535.115L505.448 72.5Z" fill="#67BFDF"/>
<path d="M419.172 77.5679V145.922H376.349L379.86 75.8179L419.172 77.5679Z" fill="#F8A118"/>
<path d="M384.974 94.3644H412.302V90.2759H384.974V94.3644Z" fill="#B57F1C"/>
<path d="M384.974 104.078H412.302V99.9897H384.974V104.078Z" fill="#B57F1C"/>
<path d="M384.974 113.646H412.302V109.557H384.974V113.646Z" fill="#B57F1C"/>
<path d="M384.974 123.87H412.302V119.781H384.974V123.87Z" fill="#B57F1C"/>
<path d="M348.75 207.104H254.427V250.333H348.75V207.104Z" fill="#56534E"/>
<path d="M339.005 205.542L340.953 252.672H334.13L332.182 205.542H339.005Z" fill="#6B6560"/>
<path d="M305.677 205.547V252.672H295.938L298.078 205.547H305.677Z" fill="#6B6560"/>
<path d="M266.411 205.932L267.583 253.062H259.589L258.422 205.932H266.411Z" fill="#6B6560"/>
<path d="M8.61963 195.437H244.224V179.463H8.61963V195.437Z" fill="#3C3835"/>
<mask id="mask2_171_2" style="mask-type:luminance" maskUnits="userSpaceOnUse" x="115" y="196" width="95" height="96">
<path d="M115.333 196.333H210V291.057H115.333V196.333Z" fill="white"/>
</mask>
<g mask="url(#mask2_171_2)">
<path d="M182 291.068L209.511 263.458V224.412L182 196.802H143.089L115.573 224.412V263.458L143.089 291.068H182Z" fill="#272626"/>
</g>
<path d="M160.224 269.818L179.646 264.125L188.646 246.61L181.953 227.526L163.495 218.052L144.078 223.74L135.078 241.261L141.766 260.344L160.224 269.818Z" fill="#A2A2A1"/>
<path d="M147.682 255.328L159.682 261.49L172.531 257.37L178.698 245.38L174.578 232.542L162.578 226.375L149.729 230.495L143.562 242.49L147.682 255.328Z" fill="#EBEBEA"/>
<path d="M197.615 217.255L180.271 200.703L143.557 199.338L117.719 224.265V260.484L141.88 286.974H167.995L160.005 275.094C160.005 275.094 137.01 259.318 136.427 258.927C135.839 258.542 131.26 239.943 131.26 239.943L141.396 219.396L165.948 213.453L188.646 223.875L197.615 217.255Z" fill="#313030"/>
<path d="M179.661 237.922L181.312 238.693L183.026 238.068L183.797 236.417L183.172 234.708L181.521 233.943L179.807 234.563L179.042 236.214L179.661 237.922Z" fill="#EBEBEA"/>
<path d="M178.568 255.156L180.219 255.927L181.927 255.302L182.698 253.651L182.078 251.943L180.427 251.177L178.714 251.797L177.943 253.448L178.568 255.156Z" fill="#EBEBEA"/>
<path d="M164.313 266.037L165.964 266.802L167.677 266.182L168.448 264.531L167.823 262.823L166.172 262.052L164.464 262.677L163.693 264.323L164.313 266.037Z" fill="#EBEBEA"/>
<path d="M166.365 225.609L168.016 226.375L169.724 225.755L170.495 224.104L169.87 222.396L168.219 221.625L166.511 222.25L165.74 223.901L166.365 225.609Z" fill="#EBEBEA"/>
<path d="M148.313 227.406L149.964 228.177L151.672 227.552L152.443 225.901L151.823 224.193L150.172 223.422L148.458 224.047L147.688 225.698L148.313 227.406Z" fill="#EBEBEA"/>
<path d="M137.865 244.896L139.511 245.662L141.224 245.042L141.995 243.391L141.37 241.682L139.719 240.912L138.011 241.537L137.24 243.182L137.865 244.896Z" fill="#EBEBEA"/>
<path d="M148.313 261.802L149.964 262.568L151.672 261.948L152.443 260.297L151.823 258.589L150.172 257.818L148.458 258.443L147.688 260.094L148.313 261.802Z" fill="#EBEBEA"/>
<mask id="mask3_171_2" style="mask-type:luminance" maskUnits="userSpaceOnUse" x="14" y="196" width="95" height="96">
<path d="M14 196.333H108.667V291.057H14V196.333Z" fill="white"/>
</mask>
<g mask="url(#mask3_171_2)">
<path d="M80.8592 291.068L108.37 263.458V224.412L80.8592 196.802H41.9478L14.4321 224.412V263.458L41.9478 291.068H80.8592Z" fill="#272626"/>
</g>
<path d="M59.0833 269.818L78.5052 264.125L87.5052 246.61L80.8125 227.526L62.3542 218.052L42.9375 223.74L33.9375 241.261L40.625 260.344L59.0833 269.818Z" fill="#A2A2A1"/>
<path d="M46.5417 255.328L58.5469 261.49L71.3906 257.37L77.5625 245.38L73.4375 232.542L61.4375 226.375L48.5885 230.495L42.4219 242.49L46.5417 255.328Z" fill="#EBEBEA"/>
<path d="M96.474 217.255L79.1302 200.703L42.4219 199.338L16.5781 224.265V260.489L40.7448 286.974H66.8542L58.8646 275.094C58.8646 275.094 35.8698 259.318 35.2865 258.927C34.7031 258.542 30.1198 239.943 30.1198 239.943L40.2552 219.396L64.8073 213.458L87.5052 223.875L96.474 217.255Z" fill="#313030"/>
<path d="M78.5207 237.922L80.1717 238.693L81.8853 238.068L82.6561 236.417L82.0311 234.708L80.38 233.938L78.6717 234.563L77.9009 236.214L78.5207 237.922Z" fill="#EBEBEA"/>
<path d="M77.4272 255.156L79.0783 255.927L80.7866 255.302L81.5575 253.651L80.9325 251.943L79.2814 251.172L77.5731 251.797L76.8022 253.448L77.4272 255.156Z" fill="#EBEBEA"/>
<path d="M63.1772 266.037L64.8283 266.802L66.5366 266.182L67.3075 264.531L66.6825 262.823L65.0314 262.052L63.3231 262.677L62.5522 264.323L63.1772 266.037Z" fill="#EBEBEA"/>
<path d="M65.2241 225.609L66.87 226.375L68.5835 225.755L69.3543 224.104L68.7293 222.396L67.0783 221.625L65.37 222.25L64.5991 223.896L65.2241 225.609Z" fill="#EBEBEA"/>
<path d="M47.1719 227.406L48.8229 228.172L50.5313 227.552L51.3021 225.901L50.6771 224.193L49.026 223.422L47.3177 224.047L46.5469 225.698L47.1719 227.406Z" fill="#EBEBEA"/>
<path d="M36.7241 244.896L38.37 245.662L40.0835 245.042L40.8491 243.391L40.2293 241.682L38.5783 240.912L36.8647 241.531L36.0991 243.182L36.7241 244.896Z" fill="#EBEBEA"/>
<path d="M47.1719 261.802L48.8229 262.568L50.5313 261.948L51.3021 260.297L50.6771 258.589L49.026 257.818L47.3177 258.443L46.5469 260.094L47.1719 261.802Z" fill="#EBEBEA"/>
<mask id="mask4_171_2" style="mask-type:luminance" maskUnits="userSpaceOnUse" x="0" y="0" width="422" height="181">
<path d="M0.0883789 0.307129H422V180.333H0.0883789V0.307129Z" fill="white"/>
</mask>
<g mask="url(#mask4_171_2)">
<path d="M421.161 11.9894L373.817 17.6353L360.562 143.443L300.807 179.463H0.208008V87.9373L40.1559 56.9738L295.937 49.3748L336.567 3.2238L421.161 0.307129V11.9894Z" fill="#FBC317"/>
</g>
<mask id="mask5_171_2" style="mask-type:luminance" maskUnits="userSpaceOnUse" x="0" y="16" width="374" height="165">
<path d="M0.0883789 16.3335H374V180.334H0.0883789V16.3335Z" fill="white"/>
</mask>
<g mask="url(#mask5_171_2)">
<path d="M373.817 17.6357L345.073 20.4639L302.979 70.7607L45.0309 77.8128L0.208008 111.599V179.464H300.807L360.562 143.443L373.817 17.6357Z" fill="#F8A118"/>
</g>
<path d="M340.073 26.4272L342.734 158.339L332.182 164.177L323.734 39.4481L340.073 26.4272Z" fill="#FBC317"/>
<path d="M279.302 182H292.75V68.6616H279.302V182Z" fill="#FBC317"/>
<path d="M230.776 182H244.224V68.6616H230.776V182Z" fill="#FBC317"/>
<path d="M173.568 182H187.011V68.6616H173.568V182Z" fill="#FBC317"/>
<path d="M121.5 182H134.948V68.6616H121.5V182Z" fill="#FBC317"/>
<path d="M65.1875 182H78.6302V68.6616H65.1875V182Z" fill="#FBC317"/>
<path d="M15.3853 182H28.828V80.1509H15.3853V182Z" fill="#FBC317"/>
<path d="M437.344 156.292H461.51V149.672H437.344V156.292Z" fill="#3C3835"/>
</g>
<defs>
<clipPath id="clip0_171_2">
<rect width="546" height="291" fill="white"/>
</clipPath>
</defs>
</svg>
